REM DIRINDEX 1\2\5,1\2\6,1\2\7,1\2\8,1\3\9,1\3\10,1\3\11,1\4\12,1\4\13,1\4\14,1\4\15,1\4\16
REM DIRNAME cjc034,folder01,folder02,folder03,folder04,folder05,folder06,folder07,folder08,folder09,folder10,folder11,folder12,folder13,folder14,folder15
TITLE ""
FILE "1200_sec01_0058_0066.mp3" MP3
  TRACK 01 AUDIO
    TITLE "0:"
    INDEX 01 00:00:00
  TRACK 02 AUDIO
    TITLE "12:cjc034_03856"
    INDEX 01 00:00:19
  TRACK 03 AUDIO
    TITLE "0:"
    INDEX 01 00:01:38
  TRACK 04 AUDIO
    TITLE "13:cjc034_03857"
    INDEX 01 00:01:71
  TRACK 05 AUDIO
    TITLE "0:"
    INDEX 01 00:05:28
  TRACK 06 AUDIO
    TITLE "14:cjc034_03858"
    INDEX 01 00:05:61
  TRACK 07 AUDIO
    TITLE "0:"
    INDEX 01 00:07:05
  TRACK 08 AUDIO
    TITLE "15:cjc034_03859"
    INDEX 01 00:07:37
  TRACK 09 AUDIO
    TITLE "0:"
    INDEX 01 00:10:10
  TRACK 10 AUDIO
    TITLE "12:cjc034_03860"
    INDEX 01 00:11:42
  TRACK 11 AUDIO
    TITLE "0:"
    INDEX 01 00:12:56
  TRACK 12 AUDIO
    TITLE "13:cjc034_03861"
    INDEX 01 00:13:14
  TRACK 13 AUDIO
    TITLE "0:"
    INDEX 01 00:16:32
  TRACK 14 AUDIO
    TITLE "14:cjc034_03862"
    INDEX 01 00:16:65
  TRACK 15 AUDIO
    TITLE "0:"
    INDEX 01 00:18:05
  TRACK 16 AUDIO
    TITLE "15:cjc034_03863"
    INDEX 01 00:18:39
  TRACK 17 AUDIO
    TITLE "0:"
    INDEX 01 00:21:35
  TRACK 18 AUDIO
    TITLE "12:cjc034_03864"
    INDEX 01 00:22:68
  TRACK 19 AUDIO
    TITLE "0:"
    INDEX 01 00:24:02
  TRACK 20 AUDIO
    TITLE "13:cjc034_03865"
    INDEX 01 00:24:35
  TRACK 21 AUDIO
    TITLE "0:"
    INDEX 01 00:26:32
  TRACK 22 AUDIO
    TITLE "14:cjc034_03866"
    INDEX 01 00:26:64
  TRACK 23 AUDIO
    TITLE "0:"
    INDEX 01 00:27:71
  TRACK 24 AUDIO
    TITLE "15:cjc034_03867"
    INDEX 01 00:28:29
  TRACK 25 AUDIO
    TITLE "0:"
    INDEX 01 00:30:22
  TRACK 26 AUDIO
    TITLE "12:cjc034_03868"
    INDEX 01 00:31:51
  TRACK 27 AUDIO
    TITLE "0:"
    INDEX 01 00:32:72
  TRACK 28 AUDIO
    TITLE "13:cjc034_03869"
    INDEX 01 00:33:30
  TRACK 29 AUDIO
    TITLE "0:"
    INDEX 01 00:34:43
  TRACK 30 AUDIO
    TITLE "14:cjc034_03870"
    INDEX 01 00:35:00
  TRACK 31 AUDIO
    TITLE "0:"
    INDEX 01 00:36:21
  TRACK 32 AUDIO
    TITLE "15:cjc034_03871"
    INDEX 01 00:36:54
  TRACK 33 AUDIO
    TITLE "0:"
    INDEX 01 00:40:26
  TRACK 34 AUDIO
    TITLE "12:cjc034_03872"
    INDEX 01 00:41:59
  TRACK 35 AUDIO
    TITLE "0:"
    INDEX 01 00:43:03
  TRACK 36 AUDIO
    TITLE "13:cjc034_03873"
    INDEX 01 00:43:37
  TRACK 37 AUDIO
    TITLE "0:"
    INDEX 01 00:44:54
  TRACK 38 AUDIO
    TITLE "14:cjc034_03874"
    INDEX 01 00:45:08
  TRACK 39 AUDIO
    TITLE "0:"
    INDEX 01 00:46:29
  TRACK 40 AUDIO
    TITLE "15:cjc034_03875"
    INDEX 01 00:46:62
  TRACK 41 AUDIO
    TITLE "0:"
    INDEX 01 00:49:08
  TRACK 42 AUDIO
    TITLE "12:cjc034_03876"
    INDEX 01 00:50:39
  TRACK 43 AUDIO
    TITLE "0:"
    INDEX 01 00:51:71
  TRACK 44 AUDIO
    TITLE "13:cjc034_03877"
    INDEX 01 00:52:30
  TRACK 45 AUDIO
    TITLE "0:"
    INDEX 01 00:53:19
  TRACK 46 AUDIO
    TITLE "14:cjc034_03878"
    INDEX 01 00:53:51
  TRACK 47 AUDIO
    TITLE "0:"
    INDEX 01 00:55:10
  TRACK 48 AUDIO
    TITLE "15:cjc034_03879"
    INDEX 01 00:55:42
  TRACK 49 AUDIO
    TITLE "0:"
    INDEX 01 00:59:24
  TRACK 50 AUDIO
    TITLE "12:cjc034_03880"
    INDEX 01 01:00:57
  TRACK 51 AUDIO
    TITLE "0:"
    INDEX 01 01:02:06
  TRACK 52 AUDIO
    TITLE "13:cjc034_03881"
    INDEX 01 01:02:38
  TRACK 53 AUDIO
    TITLE "0:"
    INDEX 01 01:04:05
  TRACK 54 AUDIO
    TITLE "14:cjc034_03882"
    INDEX 01 01:04:39
  TRACK 55 AUDIO
    TITLE "0:"
    INDEX 01 01:05:62
  TRACK 56 AUDIO
    TITLE "15:cjc034_03883"
    INDEX 01 01:06:20
  TRACK 57 AUDIO
    TITLE "0:"
    INDEX 01 01:10:26
  TRACK 58 AUDIO
    TITLE "12:cjc034_03884"
    INDEX 01 01:11:62
  TRACK 59 AUDIO
    TITLE "0:"
    INDEX 01 01:13:10
  TRACK 60 AUDIO
    TITLE "13:cjc034_03885"
    INDEX 01 01:13:45
  TRACK 61 AUDIO
    TITLE "0:"
    INDEX 01 01:15:07
  TRACK 62 AUDIO
    TITLE "14:cjc034_03886"
    INDEX 01 01:15:40
  TRACK 63 AUDIO
    TITLE "0:"
    INDEX 01 01:16:65
  TRACK 64 AUDIO
    TITLE "15:cjc034_03887"
    INDEX 01 01:17:24
  TRACK 65 AUDIO
    TITLE "0:"
    INDEX 01 01:20:40
  TRACK 66 AUDIO
    TITLE "12:cjc034_03888"
    INDEX 01 01:21:74
  TRACK 67 AUDIO
    TITLE "0:"
    INDEX 01 01:23:26
  TRACK 68 AUDIO
    TITLE "13:cjc034_03889"
    INDEX 01 01:23:56
  TRACK 69 AUDIO
    TITLE "0:"
    INDEX 01 01:25:74
  TRACK 70 AUDIO
    TITLE "14:cjc034_03890"
    INDEX 01 01:26:34
  TRACK 71 AUDIO
    TITLE "0:"
    INDEX 01 01:27:61
  TRACK 72 AUDIO
    TITLE "15:cjc034_03891"
    INDEX 01 01:28:16
  TRACK 73 AUDIO
    TITLE "0:"
    INDEX 01 01:31:32
